HIERARCHY
ROOT Hips
{
  OFFSET 116.165 89.6473 -37.9676
  CHANNELS 6 Xposition Yposition Zposition Zrotation Xrotation Yrotation
  JOINT ToSpine
  {
    OFFSET -2.69724 7.43032 -0.144315
    CHANNELS 3 Zrotation Xrotation Yrotation
    JOINT Spine
    {
      OFFSET -0.0310711 10.7595 1.96963
      CHANNELS 3 Zrotation Xrotation Yrotation
      JOINT Spine1
      {
        OFFSET 13.1342 3.43533 0.764692
        CHANNELS 3 Zrotation Xrotation Yrotation
        JOINT Neck
        {
          OFFSET 29.8703 7.82586 -0.130764
          CHANNELS 3 Zrotation Xrotation Yrotation
          JOINT Head
          {
            OFFSET 9.52751 0.295786 -0.907742
            CHANNELS 3 Zrotation Xrotation Yrotation
            End Site
            {
              OFFSET 16.4037 0.713936 2.7358
            }
          }
        }
        JOINT LeftShoulder
        {
          OFFSET 27.5574 4.95586 2.47156
          CHANNELS 3 Zrotation Xrotation Yrotation
          JOINT LeftArm
          {
            OFFSET 1.20734 -0.998971 20.1238
            CHANNELS 3 Zrotation Xrotation Yrotation
            JOINT LeftForeArm
            {
              OFFSET 26.8049 -0.0536703 -0.155908
              CHANNELS 3 Zrotation Xrotation Yrotation
              JOINT LeftHand
              {
                OFFSET 26.6817 0 0.320147
                CHANNELS 3 Zrotation Xrotation Yrotation
                End Site
                {
                  OFFSET 18.6119 0 0.382219
                }
              }
            }
          }
        }
        JOINT RightShoulder
        {
          OFFSET 27.5927 4.71444 -2.65209
          CHANNELS 3 Zrotation Xrotation Yrotation
          JOINT RightArm
          {
            OFFSET 2.83739 -1.17114 -18.7564
            CHANNELS 3 Zrotation Xrotation Yrotation
            JOINT RightForeArm
            {
              OFFSET 28.839 -0.0548439 1.22491
              CHANNELS 3 Zrotation Xrotation Yrotation
              JOINT RightHand
              {
                OFFSET 26.5114 0 -0.101894
                CHANNELS 3 Zrotation Xrotation Yrotation
                End Site
                {
                  OFFSET 18.2168 0 0
                }
              }
            }
          }
        }
      }
    }
  }
  JOINT LeftUpLeg
  {
    OFFSET -4.76168 -1.9167 -10.2353
    CHANNELS 3 Zrotation Xrotation Yrotation
    JOINT LeftLeg
    {
      OFFSET 2.55951 -42.0585 -8.02213
      CHANNELS 3 Zrotation Xrotation Yrotation
      JOINT LeftFoot
      {
        OFFSET 3.16357 -42.5282 -3.95426
        CHANNELS 3 Zrotation Xrotation Yrotation
        JOINT LeftToeBase
        {
          OFFSET 0.346054 -6.02161 12.8035
          CHANNELS 3 Zrotation Xrotation Yrotation
          End Site
          {
            OFFSET 0.134235 -1.35082 5.13018
          }
        }
      }
    }
  }
  JOINT RightUpLeg
  {
    OFFSET -4.94151 -1.41743 10.6446
    CHANNELS 3 Zrotation Xrotation Yrotation
    JOINT RightLeg
    {
      OFFSET -2.56294 -42.0364 -7.94377
      CHANNELS 3 Zrotation Xrotation Yrotation
      JOINT RightFoot
      {
        OFFSET -3.0952 -42.555 -4.02241
        CHANNELS 3 Zrotation Xrotation Yrotation
        JOINT RightToeBase
        {
          OFFSET -0.0828122 -6.13587 12.8035
          CHANNELS 3 Zrotation Xrotation Yrotation
          End Site
          {
            OFFSET -0.131328 -1.35082 5.13018
          }
        }
      }
    }
  }
}
MOTION
Frames:	15
Frame Time:	0.0333333
118.364 93.602 -35.1314 62.4954 -48.6129 -23.2789 -70.1915 0 88.8779 65.1707 66.6744 16.8157 9.62379 14.8776 10.305 -116.495 19.6596 162.965 -148.378 62.5139 -174.783 -0.951995 -21.6871 -27.3686 -57.7798 38.0836 -146.11 32.1768 -3.71255 -95.1611 0.420957 0.000575981 0.35866 -1.47186 6.67261 36.6028 -108.58 -24.3758 122.048 9.12088 -3.97122 66.7027 0.58676 0.000330313 0.0646654 -56.0172 15.2221 111.856 -2.70382 41.7001 -5.65088 -0.464083 -11.4691 -0.986623 7.23127 -15.7216 6.56807 -30.3779 -11.353 91.9881 2.18683 41.3788 3.37539 -8.25176 7.6641 1.17131 3.37325 -25.2135 2.9902 
117.79 92.6549 -36.4318 65.0104 -42.7615 -19.932 -70.1915 0 88.8779 64.6887 67.6893 15.0755 9.89514 15.4027 11.9228 -116.661 20.0775 158.88 -152.895 64.7149 -172.304 -1.48725 -22.7277 -30.3412 -58.5541 32.8288 -142.349 32.938 -3.99887 -95.4277 0.420957 0.000575981 0.35866 -1.34924 6.41872 35.6358 -116.685 -21.8882 118.486 7.92689 -3.91216 63.9936 0.58676 0.000330313 0.0646654 -50.9224 14.2421 108.078 -3.01561 45.275 -5.27902 1.37809 -14.3583 -1.23765 6.64249 -14.6941 6.79357 -31.188 -12.0651 94.8698 1.9203 40.1594 1.89696 -6.26446 7.44104 0.788959 2.45974 -19.5968 2.56402 
117.209 91.7403 -37.5158 67.4199 -37.771 -15.9983 -70.1915 0 88.8779 74.3875 69.0099 8.79744 7.95619 17.0334 7.13233 -114.473 18.455 151.143 -153.171 66.4183 -171.963 -1.30723 -22.4573 -29.2667 -56.9525 29.8458 -143.024 32.4684 -3.81968 -95.2623 0.420957 0.000575981 0.35866 -1.61911 6.43874 39.7299 -124.108 -14.5684 114.427 5.88987 -3.14245 62.239 0.58676 0.000330313 0.0646654 -46.3217 13.6454 102.896 -3.70775 49.8434 -5.94474 2.52054 -16.57 -1.37136 6.30333 -14.2118 8.19685 -32.1659 -15.7369 87.625 0.677755 40.82 -7.68861 -9.46221 3.2619 1.38791 1.7585 -16.6593 18.1109 
116.712 91.1013 -38.6116 67.9367 -34.9353 -14.4791 -70.1915 0 88.8779 80.4008 70.9254 4.58167 6.36787 19.207 5.57562 -113.398 18.6904 147.83 -159.092 68.512 -166.455 -1.35521 -22.1991 -30.1421 -56.3136 27.5179 -142.798 30.7391 -3.82769 -95.6861 0.420957 0.000575981 0.35866 -1.77074 6.56278 41.5021 -129.464 -7.9383 112.298 4.12145 -2.52287 59.0351 0.58676 0.000330313 0.0646654 -42.8069 13.5512 100.976 -4.47646 53.1497 -7.52041 2.58049 -17.3239 -1.41496 6.37559 -14.5938 11.5726 -32.3723 -18.7695 82.3896 0.543637 40.293 -8.62595 -14.1365 1.81339 2.06047 1.81099 -16.8991 19.4861 
116.303 90.6634 -39.1542 68.5623 -33.6229 -14.237 -70.1915 0 88.8779 85.3269 72.3029 0.0680865 5.35893 20.8691 4.34286 -113.252 19.8632 148.56 -169.016 69.4426 -157.896 -1.19689 -21.1425 -30.7029 -56.436 27.2437 -141.406 30.0947 -4.28151 -96.612 0.420957 0.000575981 0.35866 -1.99316 7.02406 42.7748 -132.39 -3.64015 111.988 1.9709 -1.45579 54.8264 0.58676 0.000330313 0.0646654 -41.9729 13.828 102 -4.7798 54.2971 -8.01312 2.90809 -17.4102 -1.41166 6.42724 -14.866 14.3514 -31.0441 -20.6606 82.2975 0.915717 42.7501 -7.18083 -10.0677 1.99613 1.47115 1.26207 -14.9909 18.0202 
116.126 90.136 -39.2318 69.6613 -31.9041 -12.6799 -70.1915 0 88.8779 89.1577 72.8669 -3.10863 5.25279 21.6767 3.48779 -113.287 20.6085 149.196 -174.559 69.7026 -153.146 -1.1631 -20.9392 -30.7893 -56.299 28.224 -139.979 28.9491 -4.76517 -97.8001 0.420957 0.000575981 0.35866 -2.12903 7.20518 43.8873 -134.188 -0.0811366 112.025 0.578404 -0.557959 50.7734 0.58676 0.000330313 0.0646654 -40.9218 15.2412 102.123 -5.23235 56.3836 -7.73615 2.45799 -18.3268 -1.47883 4.75435 -12.496 16.0479 -31.4618 -22.9047 79.1526 1.21858 44.5996 -6.05234 -10.8847 1.31211 1.5797 1.52553 -15.8759 18.025 
116.104 90.0283 -39.3701 70.7383 -29.7829 -10.6134 -70.1915 0 88.8779 90.1053 73.1725 -4.41362 5.28289 21.6119 5.02279 -112.51 21.3856 150.833 178.524 69.4553 -145.507 -1.371 -21.436 -31.7649 -56.1777 29.6045 -138.684 29.7022 -5.32736 -98.4975 0.420957 0.000575981 0.35866 -2.14522 7.32559 43.6106 -135.17 2.10908 111.108 0.83711 -0.849498 48.0037 0.58676 0.000330313 0.0646654 -39.911 16.4207 101.607 -5.80917 57.6072 -9.55956 1.95184 -18.4127 -1.50174 3.81253 -10.9304 14.937 -33.4106 -25.2467 74.4353 1.63408 44.8798 -3.56228 -11.309 1.38832 1.64103 1.62969 -16.0981 16.3124 
116.073 89.8306 -39.1974 70.8898 -27.451 -9.81063 -70.1915 0 88.8779 86.283 73.0716 -1.03874 6.30258 21.5094 4.70599 -113.209 21.7634 150.781 176.24 69.4786 -143.898 -1.31959 -21.1754 -31.8212 -56.8112 29.7253 -138.448 26.6706 -5.06811 -99.2167 0.420957 0.000575981 0.35866 -2.11693 7.1499 43.9535 -135.81 3.34037 110.51 0.615131 -0.695664 45.923 0.58676 0.000330313 0.0646654 -38.486 15.8737 99.9988 -6.16764 58.2948 -10.6214 2.15778 -17.1303 -1.41325 4.79694 -12.2752 13.538 -33.9197 -27.3671 71.7784 1.83988 46.0401 -2.80981 -11.0247 0.521568 1.58535 1.53539 -15.7261 15.8982 
116.048 89.4485 -39.0061 71.2565 -25.8101 -8.82573 -70.1915 0 88.8779 86.7214 72.9869 -1.35295 6.34833 21.5906 4.01177 -113.489 21.867 150.165 175.522 69.6973 -143.656 -1.24184 -20.9463 -31.5518 -56.7299 29.714 -138.858 26.041 -5.01138 -99.3756 0.420957 0.000575981 0.35866 -2.10986 7.02502 44.3863 -137.979 2.76772 109.841 1.54319 -1.67622 44.4139 0.58676 0.000330313 0.0646654 -37.2857 15.7952 98.4583 -6.51388 59.459 -10.4798 1.9179 -17.6831 -1.455 4.66775 -11.888 12.0478 -34.3741 -28.3395 70.4629 1.78698 47.3655 -3.99547 -11.3033 -0.799395 1.59598 1.5111 -15.7758 17.4136 
115.865 89.447 -38.9335 71.4075 -25.3117 -8.40369 -70.1915 0 88.8779 88.4691 73.1007 -2.94763 6.07701 21.9269 3.26634 -114.286 22.0204 149.886 176.072 69.8637 -144.937 -1.09159 -20.5952 -30.796 -56.3335 30.0306 -139.677 26.5742 -5.09467 -99.308 0.420957 0.000575981 0.35866 -2.22441 7.207 45.1625 -138.281 3.49384 108.922 1.92658 -2.08907 44.0709 0.58676 0.000330313 0.0646654 -36.9585 16.0136 98.1409 -6.54569 59.5069 -10.6513 1.99313 -17.2683 -1.426 4.91308 -12.2081 11.414 -34.5922 -28.0731 70.5205 1.8201 47.4797 -3.94694 -10.7053 -0.649259 1.52482 1.52693 -15.6846 15.7808 
115.753 89.4495 -38.8241 71.4435 -24.7607 -7.72675 -70.1915 0 88.8779 88.8397 72.9673 -2.89835 6.1807 21.9111 2.7989 -114.808 22.2282 150.292 175.635 69.7632 -144.808 -0.971248 -20.2339 -30.3223 -56.437 30.3405 -140.073 25.7488 -4.98958 -99.4602 0.420957 0.000575981 0.35866 -2.27832 7.32308 45.3846 -139.137 3.18373 108.378 2.23279 -2.41654 43.9466 0.58676 0.000330313 0.0646654 -36.4415 16.3318 97.4404 -6.68396 59.7132 -11.1696 1.96543 -17.1017 -1.41585 4.97708 -12.3517 11.7451 -35.0903 -27.6853 70.0263 1.76802 47.3175 -4.20964 -10.4275 -0.573188 1.49132 1.58427 -15.8584 15.3978 
115.673 89.3833 -38.6766 71.5018 -24.0694 -7.27656 -70.1915 0 88.8779 88.8248 72.981 -3.14371 5.97663 21.8199 3.22702 -115.115 23.0142 150.681 174.109 70.1313 -143.421 -1.08661 -20.4919 -30.968 -57.1033 30.1686 -139.526 24.3201 -4.74273 -99.6014 0.420957 0.000575981 0.35866 -2.24572 7.35424 44.824 -139.921 2.94027 107.545 2.46692 -2.68102 43.7226 0.58676 0.000330313 0.0646654 -35.9448 16.2058 96.6022 -6.7196 59.8777 -10.9747 1.9749 -17.0463 -1.41204 5.09018 -12.4928 11.3762 -35.5287 -27.7334 69.4671 1.65711 47.3729 -4.92821 -10.4599 -1.26953 1.4863 1.49 -15.6094 16.386 
115.645 89.4309 -38.5636 71.4389 -23.6364 -6.99259 -70.1915 0 88.8779 87.3738 72.7857 -1.51888 6.44805 21.6684 2.90164 -115.686 23.4179 151.331 172.726 70.0207 -142.462 -1.09147 -20.4884 -31.0258 -57.6052 30.1718 -139.286 23.7604 -4.51266 -99.3684 0.420957 0.000575981 0.35866 -2.24265 7.4016 44.5874 -140.46 2.25039 107.433 2.47234 -2.69834 43.5988 0.58676 0.000330313 0.0646654 -35.6691 16.0609 95.9613 -6.7118 59.7835 -11.1725 1.79955 -16.906 -1.40665 5.18316 -12.6957 11.8365 -35.975 -27.797 68.7137 1.63154 47.1404 -4.92561 -10.3021 -1.71294 1.46239 1.42951 -15.4784 17.2252 
115.637 89.4637 -38.4476 71.321 -23.3193 -6.80659 -70.1915 0 88.8779 86.6263 72.7012 -0.982724 6.16204 21.5226 3.21067 -115.89 23.6101 151.442 172.476 70.1125 -142.572 -1.04223 -20.3078 -30.91 -57.4484 30.1485 -139.455 23.6211 -4.36513 -99.1107 0.420957 0.000575981 0.35866 -2.22763 7.31288 44.7575 -140.528 2.23538 107.386 2.68407 -2.90129 43.797 0.58676 0.000330313 0.0646654 -35.46 16.0202 95.5645 -6.69004 59.6658 -11.3162 2.01854 -16.702 -1.3889 5.29318 -12.8758 11.8591 -36.3724 -28.0807 67.645 1.67451 46.8847 -4.49 -10.7116 -1.53733 1.51211 1.66442 -16.3408 18.0294 
115.62 89.5036 -38.3247 71.3678 -23.2309 -6.7229 -70.1915 0 88.8779 87.0435 72.8137 -1.60632 5.65575 21.6032 3.44815 -115.668 23.6096 151.113 173.17 70.3451 -143.057 -1.06902 -20.4655 -30.8437 -57.2388 30.2068 -139.519 24.2856 -4.40431 -98.9004 0.420957 0.000575981 0.35866 -2.20341 7.23388 44.7669 -140.84 2.23939 107.025 2.6402 -2.82609 44.0921 0.58676 0.000330313 0.0646654 -35.5517 15.9901 95.3598 -6.58115 59.4451 -11.1144 1.86661 -16.7058 -1.39207 5.3217 -12.8751 11.4205 -36.6451 -28.1144 67.286 1.6479 46.7854 -4.61997 -11.0216 -1.69854 1.54532 1.71183 -16.5581 19.0318 
